<svg xmlns="http://www.w3.org/2000/svg" xmlns:xlink="http://www.w3.org/1999/xlink" viewBox="0 0 131.16 81.45"><defs><style>.cls-1{fill:url(#Gradiente_sem_nome_90);}.cls-2{fill:url(#Gradiente_sem_nome_91);}.cls-3{fill:#7b087e;}.cls-4{font-size:22px;fill:#dae0fb;font-family:Rubik-Medium, Rubik;font-weight:500;}.cls-5{letter-spacing:-0.02em;}.cls-6{font-family:Rubik-Light, Rubik;font-weight:300;}.cls-7{letter-spacing:-0.01em;}.cls-8{letter-spacing:-0.01em;}</style><linearGradient id="Gradiente_sem_nome_90" x1="-2.92" y1="-86.11" x2="-2.92" y2="-48.07" gradientTransform="translate(66.3 62.17) rotate(-45)" gradientUnits="userSpaceOnUse"><stop offset="0" stop-color="#be485e"/><stop offset="1" stop-color="#7b087e"/></linearGradient><linearGradient id="Gradiente_sem_nome_91" x1="-34.31" y1="-54.43" x2="3.39" y2="-54.43" gradientTransform="translate(66.3 62.17) rotate(-45)" gradientUnits="userSpaceOnUse"><stop offset="0" stop-color="#0032af"/><stop offset="1" stop-color="#7b087e"/></linearGradient></defs><g id="Camada_2" data-name="Camada 2"><g id="Camada_1-2" data-name="Camada 1"><path class="cls-1" d="M2.34,2.34a8,8,0,0,0,0,11.3L14.45,25.75,20.1,20.1a8,8,0,0,1,11.3,0L13.64,2.34A8,8,0,0,0,2.34,2.34Z"/><path class="cls-2" d="M20.1,31.4l-5.65-5.65L2.34,37.86a8,8,0,0,0,11.3,11.3L31.4,31.4A8,8,0,0,1,20.1,31.4Z"/><path class="cls-3" d="M20.1,20.1l-5.65,5.65L20.1,31.4a8,8,0,1,0,0-11.3Z"/><text class="cls-4" transform="translate(38.74 33.65)">UD<tspan class="cls-5" x="31.17" y="0">P</tspan><tspan class="cls-6"><tspan x="0" y="21">bilingual </tspan><tspan x="0" y="42">p</tspan><tspan class="cls-7" x="12.78" y="42">r</tspan><tspan x="20.17" y="42">og</tspan><tspan class="cls-8" x="45.23" y="42">r</tspan><tspan x="52.71" y="42">am</tspan></tspan></text></g></g></svg>