<svg xmlns="http://www.w3.org/2000/svg" width="232.666" height="354.081" viewBox="0 0 232.666 354.081"><g transform="translate(340.346 727.053) rotate(180)" opacity="0.55"><path d="M124.68,389.972a54.625,54.625,0,0,0,0,77.253l82.787,82.787,38.626-38.626a54.628,54.628,0,0,1,77.253,0L201.933,389.972A54.625,54.625,0,0,0,124.68,389.972Z" fill="none" stroke="#92abfd" stroke-miterlimit="10" stroke-width="2"/><path d="M246.094,542.849l-38.626-38.628L124.68,587.01a54.626,54.626,0,0,0,77.253,77.253L323.346,542.849A54.628,54.628,0,0,1,246.094,542.849Z" transform="translate(0 45.791)" fill="none" stroke="#92abfd" stroke-miterlimit="10" stroke-width="2"/><path d="M220.4,479.8,181.771,518.43,220.4,557.058a54.626,54.626,0,1,0,0-77.254Z" transform="translate(25.696 31.582)" fill="none" stroke="#92abfd" stroke-miterlimit="10" stroke-width="2"/></g></svg>