<svg xmlns="http://www.w3.org/2000/svg" xmlns:xlink="http://www.w3.org/1999/xlink" width="91.634" height="94.557" viewBox="0 0 91.634 94.557">
  <defs>
    <clipPath id="clip-path">
      <path id="Caminho_83" data-name="Caminho 83" d="M0,45.734H91.634V-48.823H0Z" transform="translate(0 48.823)" fill="#5d7ada"/>
    </clipPath>
  </defs>
  <g id="Grupo_66" data-name="Grupo 66" transform="translate(0 48.823)">
    <g id="Grupo_65" data-name="Grupo 65" transform="translate(0 -48.823)" clip-path="url(#clip-path)">
      <g id="Grupo_54" data-name="Grupo 54" transform="translate(16.292 33.095)">
        <path id="Caminho_72" data-name="Caminho 72" d="M5.385,0c2.353.012,6.924.839,6.91,3.794a2.1,2.1,0,0,1-2.006,2.243c-1.321-.006-2.218-1.185-4.923-1.2-4-.017-6.072,3.5-6.089,7.6-.017,4,2.061,7.435,6.023,7.453C8.008,19.9,9.108,18.5,10.429,18.5a2.326,2.326,0,0,1,2.117,2.3c-.014,3.225-4.881,3.941-7.265,3.93C-1.26,24.7-5.78,19.267-5.749,12.314-5.72,5.324-1.186-.031,5.385,0" transform="translate(5.749 0)" fill="#5d7ada"/>
      </g>
      <g id="Grupo_55" data-name="Grupo 55" transform="translate(38.449 33.36)">
        <path id="Caminho_73" data-name="Caminho 73" d="M.038,1.262A2.361,2.361,0,0,1,2.465-1.347,2.365,2.365,0,0,1,4.872,1.285L4.8,18.15l5.735.027a2.243,2.243,0,0,1,2.311,2.429,2.3,2.3,0,0,1-2.33,2.206l-8.053-.037a2.445,2.445,0,0,1-2.5-2.766Z" transform="translate(0.041 1.347)" fill="#5d7ada"/>
      </g>
      <g id="Grupo_56" data-name="Grupo 56" transform="translate(53.784 33.43)">
        <path id="Caminho_74" data-name="Caminho 74" d="M.038,1.263A2.364,2.364,0,0,1,2.465-1.348,2.365,2.365,0,0,1,4.871,1.284L4.789,20.369a2.365,2.365,0,0,1-2.427,2.611,2.365,2.365,0,0,1-2.4-2.634Z" transform="translate(0.041 1.348)" fill="#5d7ada"/>
      </g>
      <g id="Grupo_57" data-name="Grupo 57" transform="translate(63.126 33.473)">
        <path id="Caminho_75" data-name="Caminho 75" d="M.038,1.263A2.363,2.363,0,0,1,2.467-1.348a2.364,2.364,0,0,1,2.4,2.632L4.8,18.151l5.735.027a2.242,2.242,0,0,1,2.311,2.429,2.3,2.3,0,0,1-2.33,2.208l-8.053-.039a2.448,2.448,0,0,1-2.5-2.766Z" transform="translate(0.041 1.348)" fill="#5d7ada"/>
      </g>
      <g id="Grupo_58" data-name="Grupo 58" transform="translate(16.421 59.718)">
        <path id="Caminho_76" data-name="Caminho 76" d="M1.7,5.085H2.764c.474,0,.976.107.976.74s-.562.74-.976.74H-.84c-.414,0-.976-.093-.976-.74s.5-.74.976-.74H.281V-.265H-.84c-.414,0-.976-.093-.976-.74,0-.631.5-.74.976-.74H.651c.813,0,1.05.155,1.05,1.032ZM-.443-4.735c0-.525.281-.693.666-.693h.813c.383,0,.664.168.664.693v.709c0,.523-.281.7-.664.7H.223c-.385,0-.666-.172-.666-.7Z" transform="translate(1.816 5.428)" fill="#5d7ada"/>
      </g>
      <g id="Grupo_59" data-name="Grupo 59" transform="translate(26.367 63.401)">
        <path id="Caminho_77" data-name="Caminho 77" d="M.687,1.446v4.3c0,.507-.1,1.017-.709,1.017s-.711-.509-.711-1.017v-6.2c0-.542.06-1.1.711-1.1.635,0,.709.554.709,1.079v.2L1.839-1.05a2.282,2.282,0,0,1,1.226-.494h1.05a1.763,1.763,0,0,1,1.317.538A2.41,2.41,0,0,1,6.067,1l.147,4.654c.015.525-.06,1.11-.7,1.11-.575,0-.693-.509-.709-1L4.663,1.2C4.632.29,4.558-.064,3.7-.064H3.23a.834.834,0,0,0-.445.139Z" transform="translate(0.733 1.544)" fill="#5d7ada"/>
      </g>
      <g id="Grupo_60" data-name="Grupo 60" transform="translate(37.009 63.402)">
        <path id="Caminho_78" data-name="Caminho 78" d="M1.173.716c-.3,0-.8-.062-.8.416,0,.246.178.339.383.432L4.306,3.243A2.1,2.1,0,0,1,5.7,5.339,2.081,2.081,0,0,1,3.359,7.545H1.173A2.468,2.468,0,0,1-.6,7.082c-.265-.217-.651-.494-.651-.862a.74.74,0,0,1,.74-.74.673.673,0,0,1,.548.261,1.45,1.45,0,0,0,1.137.323H3.094c.5,0,1.183.045,1.183-.817,0-.354-.414-.587-.74-.74L.2,2.92a1.819,1.819,0,0,1-1.241-1.8A1.844,1.844,0,0,1,.907-.764H3.33a1.994,1.994,0,0,1,1.642.509c.265.23.56.414.56.831A.731.731,0,0,1,4.2,1.008,1.015,1.015,0,0,0,3.33.716Z" transform="translate(1.252 0.764)" fill="#5d7ada"/>
      </g>
      <g id="Grupo_61" data-name="Grupo 61" transform="translate(48.346 59.718)">
        <path id="Caminho_79" data-name="Caminho 79" d="M1.7,5.085H2.764c.474,0,.978.107.978.74s-.562.74-.978.74H-.84c-.414,0-.976-.093-.976-.74s.5-.74.976-.74H.283V-.265H-.84c-.414,0-.976-.093-.976-.74,0-.631.5-.74.976-.74H.653c.811,0,1.048.155,1.048,1.032ZM-.441-4.735c0-.525.279-.693.664-.693h.813c.385,0,.664.168.664.693v.709c0,.523-.279.7-.664.7H.223c-.385,0-.664-.172-.664-.7Z" transform="translate(1.816 5.428)" fill="#5d7ada"/>
      </g>
      <g id="Grupo_62" data-name="Grupo 62" transform="translate(58.294 60.349)">
        <path id="Caminho_80" data-name="Caminho 80" d="M1.88,1.476a2.007,2.007,0,0,1,1.4.817l.236.261V-.557c0-.509.1-1.019.709-1.019s.711.509.711,1.019v9.31c0,.507-.1,1.032-.711,1.032-.562,0-.709-.492-.709-.986V8.706l-.312.323a2.225,2.225,0,0,1-1.36.755H.476A2.141,2.141,0,0,1-.737,9.26l-.488-.432a1.944,1.944,0,0,1-.782-1.71V4.143a1.95,1.95,0,0,1,.782-1.712L-.737,2a1.743,1.743,0,0,1,1.36-.523ZM-.589,6.531c0,.416,0,.941.223,1.127l.428.354a.936.936,0,0,0,.533.292H1.6a1.155,1.155,0,0,0,.693-.37l.813-.726a.9.9,0,0,0,.414-.645V4.7c0-.277-.205-.461-.414-.647l-.813-.724a1.165,1.165,0,0,0-.693-.37H.594a.928.928,0,0,0-.533.294L-.367,3.6c-.223.186-.223.709-.223,1.125Z" transform="translate(2.007 1.576)" fill="#5d7ada"/>
      </g>
      <g id="Grupo_63" data-name="Grupo 63" transform="translate(68.935 63.402)">
        <path id="Caminho_81" data-name="Caminho 81" d="M1.259,4.019a1.469,1.469,0,0,1-1.272-.4l-.6-.556A1.866,1.866,0,0,1-1.344,1.4V-1.455a2,2,0,0,1,.7-1.772l.5-.445A1.86,1.86,0,0,1,1.422-4.29h1.3a1.975,1.975,0,0,1,1.567.538l.577.478A2.145,2.145,0,0,1,5.6-1.346V-.159C5.6.687,5.471.935,4.629.935H.076v.494a.747.747,0,0,0,.207.432l.354.4a1.157,1.157,0,0,0,.945.279H4.629c.471,0,.974.107.974.738,0,.649-.562.742-.974.742ZM.076-.544H4.183v-.895c0-.277.015-.507-.176-.693l-.546-.494a.984.984,0,0,0-.68-.184h-1.2a1.106,1.106,0,0,0-.722.168l-.49.37a.688.688,0,0,0-.294.68Z" transform="translate(1.344 4.29)" fill="#5d7ada"/>
      </g>
      <g id="Grupo_64" data-name="Grupo 64" transform="translate(0.001 0)">
        <path id="Caminho_82" data-name="Caminho 82" d="M37.069,7.227C28.759-.342,18.157-2.993,12.734-2.716A23.526,23.526,0,0,0-7.175,9.911a.4.4,0,0,1-.37.081,11.209,11.209,0,0,0-1.728-.385c-.339-.046-.535.033-.562.414-.141,1.937-.536,8.946-.531,9.42s.252.6.5.275c.143-.184,4.832-5.675,6.062-7.121a.41.41,0,0,0-.1-.66,19.038,19.038,0,0,0-1.762-1.166c-.252-.128-.1-.552-.07-.618h0a20.963,20.963,0,0,1,19-10.416c8.148.291,15.023,4.5,20.872,9.542,8.632,7.441,14.4,21.9,14.19,31.053a46.574,46.574,0,0,1-10.985,29.52C25.844,83.687.891,93.357-22,72.576c-8.828-8.012-13.133-20.44-13.685-32.593A44.266,44.266,0,0,1-26.254,11.42c2.781-3.467,11.411-14.456,25.245-17v.006c.056-.01.1-.025.157-.039.021,0,.045-.008.068-.014l0,0C.7-5.982,1.325-6.787,1.114-7.38c-.13-.362-.852-.366-1.437-.306l0,0-.031.006c-.4.043-.715.112-.734.114-10.1,1.7-21.691,9.718-26.632,16.249-3.006,3.976-11.558,13.071-11.849,31.344C-39.776,53-34.245,66.711-24.159,75.465a45.2,45.2,0,0,0,30,11.374c17.4-.167,29-10.081,33.55-15.072a49.939,49.939,0,0,0,12.643-31.6C52.482,27.5,46.921,16.182,37.069,7.227" transform="translate(39.573 7.715)" fill="#5d7ada"/>
      </g>
    </g>
  </g>
</svg>
