<svg xmlns="http://www.w3.org/2000/svg" xmlns:xlink="http://www.w3.org/1999/xlink" viewBox="0 0 207.64 316.4"><defs><style>.cls-1{isolation:isolate;}.cls-2{opacity:0.6;mix-blend-mode:screen;}.cls-3,.cls-4,.cls-5{fill:none;stroke-miterlimit:10;}.cls-3{stroke:url(#Gradiente_sem_nome_67);}.cls-4{stroke:url(#Gradiente_sem_nome_67-2);}.cls-5{stroke:url(#Gradiente_sem_nome_67-3);}</style><linearGradient id="Gradiente_sem_nome_67" x1="-355.48" y1="695.48" x2="-162.32" y2="695.48" gradientTransform="translate(-147.84 932.43) rotate(180)" gradientUnits="userSpaceOnUse"><stop offset="0" stop-color="#004891"/><stop offset="1" stop-color="#770c7e"/></linearGradient><linearGradient id="Gradiente_sem_nome_67-2" x1="-355.48" y1="852.98" x2="-162.32" y2="852.98" xlink:href="#Gradiente_sem_nome_67"/><linearGradient id="Gradiente_sem_nome_67-3" x1="-267.19" y1="774.23" x2="-147.84" y2="774.23" xlink:href="#Gradiente_sem_nome_67"/></defs><g class="cls-1"><g id="Camada_2" data-name="Camada 2"><g id="Camada_1-2" data-name="Camada 1"><g class="cls-2"><path class="cls-3" d="M192.8,301.57a48.94,48.94,0,0,0,0-69.21L118.64,158.2,84,192.8a48.94,48.94,0,0,1-69.21,0L123.6,301.57A48.93,48.93,0,0,0,192.8,301.57Z"/><path class="cls-4" d="M84,123.6l34.6,34.6L192.8,84a48.94,48.94,0,0,0-69.2-69.21L14.83,123.6A48.94,48.94,0,0,1,84,123.6Z"/><path class="cls-5" d="M84,192.8l34.6-34.6L84,123.6a48.94,48.94,0,1,0,0,69.2Z"/></g></g></g></g></svg>