<svg xmlns="http://www.w3.org/2000/svg" width="179.739" height="273.295" viewBox="0 0 179.739 273.295">
  <g id="Grupo_133" data-name="Grupo 133" transform="translate(-107.68 -372.972)">
    <path id="Caminho_190" data-name="Caminho 190" d="M121.009,386.3a42.091,42.091,0,0,0,0,59.527L184.8,509.619l29.763-29.763a42.093,42.093,0,0,1,59.527,0L180.536,386.3A42.091,42.091,0,0,0,121.009,386.3Z" transform="translate(0 0)" fill="none" stroke="#fadcf3" stroke-miterlimit="10" stroke-width="2"/>
    <path id="Caminho_191" data-name="Caminho 191" d="M214.564,533.986,184.8,504.221l-63.792,63.793a42.092,42.092,0,0,0,59.527,59.527l93.555-93.555A42.093,42.093,0,0,1,214.564,533.986Z" transform="translate(0 5.398)" fill="none" stroke="#fadcf3" stroke-miterlimit="10" stroke-width="2"/>
    <path id="Caminho_192" data-name="Caminho 192" d="M211.534,476.133,181.771,505.9l29.763,29.765a42.092,42.092,0,1,0,0-59.528Z" transform="translate(3.029 3.723)" fill="none" stroke="#fadcf3" stroke-miterlimit="10" stroke-width="2"/>
  </g>
</svg>
