<svg xmlns="http://www.w3.org/2000/svg" xmlns:xlink="http://www.w3.org/1999/xlink" viewBox="0 0 121.06 184.26"><defs><style>.cls-1{opacity:0.7;}.cls-2,.cls-3,.cls-4{fill:none;stroke-miterlimit:10;}.cls-2{stroke:url(#Gradiente_sem_nome_67);}.cls-3{stroke:url(#Gradiente_sem_nome_67-2);}.cls-4{stroke:url(#Gradiente_sem_nome_67-3);}</style><linearGradient id="Gradiente_sem_nome_67" y1="46.42" x2="112.59" y2="46.42" gradientUnits="userSpaceOnUse"><stop offset="0" stop-color="#004891"/><stop offset="1" stop-color="#770c7e"/></linearGradient><linearGradient id="Gradiente_sem_nome_67-2" x1="0" y1="137.84" x2="112.59" y2="137.84" xlink:href="#Gradiente_sem_nome_67"/><linearGradient id="Gradiente_sem_nome_67-3" x1="51.21" y1="92.13" x2="121.06" y2="92.13" xlink:href="#Gradiente_sem_nome_67"/></defs><g id="Camada_2" data-name="Camada 2"><g id="Camada_1-2" data-name="Camada 1"><g class="cls-1"><path class="cls-2" d="M8.83,8.83A28.42,28.42,0,0,0,8.83,49L51.92,92.13,72,72a28.44,28.44,0,0,1,40.21,0L49,8.83A28.42,28.42,0,0,0,8.83,8.83Z"/><path class="cls-3" d="M72,112.24,51.92,92.13,8.83,135.22A28.43,28.43,0,0,0,49,175.43l63.2-63.19A28.44,28.44,0,0,1,72,112.24Z"/><path class="cls-4" d="M72,72,51.92,92.13,72,112.24A28.44,28.44,0,1,0,72,72Z"/></g></g></g></svg>