<svg xmlns="http://www.w3.org/2000/svg" viewBox="0 0 109.74 109.74"><defs><style>.cls-1,.cls-2{fill:none;stroke:#1335e1;stroke-linecap:round;stroke-miterlimit:10;}.cls-2{stroke-dasharray:0.97 3.89;}</style></defs><g id="Camada_2" data-name="Camada 2"><g id="Camada_1-2" data-name="Camada 1"><line class="cls-1" x1="0.5" y1="54.15" x2="0.85" y2="54.51"/><line class="cls-2" x1="3.61" y1="57.26" x2="53.85" y2="107.51"/><line class="cls-1" x1="55.23" y1="108.88" x2="55.58" y2="109.24"/><line class="cls-1" x1="9.08" y1="45.57" x2="9.44" y2="45.92"/><line class="cls-2" x1="12.19" y1="48.68" x2="62.44" y2="98.92"/><line class="cls-1" x1="63.82" y1="100.3" x2="64.17" y2="100.65"/><line class="cls-1" x1="18.38" y1="36.27" x2="18.74" y2="36.62"/><line class="cls-2" x1="21.49" y1="39.38" x2="71.74" y2="89.62"/><line class="cls-1" x1="73.12" y1="91" x2="73.47" y2="91.35"/><line class="cls-1" x1="26.97" y1="27.68" x2="27.32" y2="28.04"/><line class="cls-2" x1="30.08" y1="30.79" x2="80.32" y2="81.04"/><line class="cls-1" x1="81.7" y1="82.42" x2="82.05" y2="82.77"/><line class="cls-1" x1="36.27" y1="18.38" x2="36.62" y2="18.74"/><line class="cls-2" x1="39.38" y1="21.49" x2="89.62" y2="71.74"/><line class="cls-1" x1="91" y1="73.12" x2="91.35" y2="73.47"/><line class="cls-1" x1="44.85" y1="9.8" x2="45.21" y2="10.15"/><line class="cls-2" x1="47.96" y1="12.91" x2="98.21" y2="63.15"/><line class="cls-1" x1="99.58" y1="64.53" x2="99.94" y2="64.88"/><line class="cls-1" x1="54.15" y1="0.5" x2="54.51" y2="0.85"/><line class="cls-2" x1="57.26" y1="3.61" x2="107.51" y2="53.85"/><line class="cls-1" x1="108.88" y1="55.23" x2="109.24" y2="55.58"/></g></g></svg>