<svg xmlns="http://www.w3.org/2000/svg" xmlns:xlink="http://www.w3.org/1999/xlink" width="75.514" height="74.925" viewBox="0 0 75.514 74.925"><defs><clipPath id="a"><path d="M0,34.128H75.514V-40.8H0Z" transform="translate(0 40.797)" fill="#5d7ada"/></clipPath></defs><g transform="translate(0 40.797)"><g transform="translate(0 -40.797)" clip-path="url(#a)"><g transform="translate(51.91 24.281)"><path d="M9.913,10.822H9.171V7.568C12.1,4.6,11.77-.693,11.714-1.363V-6.906a3.241,3.241,0,0,0-3.236-3.238H8.354a3.215,3.215,0,0,0-1.557.4,3.238,3.238,0,0,0-2.533-1.223H4.139a3.239,3.239,0,0,0-1.522.376A3.232,3.232,0,0,0,.141-11.743H.016a3.211,3.211,0,0,0-1.284.264,3.239,3.239,0,0,0-2.7-1.458H-4.1A3.24,3.24,0,0,0-7.332-9.7v3.118a3.941,3.941,0,0,0-3.084.753c-1.666,1.394-1.5,4.16-1.337,6.836.222,3.653,3.478,6.716,4.733,7.767v2.05h-.626a1.19,1.19,0,0,0-1.19,1.192v24.5a1.19,1.19,0,0,0,1.19,1.19H9.913a1.19,1.19,0,0,0,1.192-1.19v-24.5a1.192,1.192,0,0,0-1.192-1.192M-9.374.863C-9.488-1.027-9.631-3.38-8.888-4a2.067,2.067,0,0,1,1.556-.176v1.618A1.191,1.191,0,0,0-6.14-1.369,1.19,1.19,0,0,0-4.95-2.561V-9.7a.856.856,0,0,1,.854-.854h.125a.856.856,0,0,1,.854.854v4.6A1.19,1.19,0,0,0-1.925-3.91,1.19,1.19,0,0,0-.735-5.1V-8.911a.853.853,0,0,1,.751-.45H.141a.856.856,0,0,1,.854.854V-5.1a1.19,1.19,0,0,0,1.19,1.19A1.19,1.19,0,0,0,3.377-5.1V-8.116a.847.847,0,0,1,.762-.466h.123a.854.854,0,0,1,.854.854v3.212A1.192,1.192,0,0,0,6.308-3.325,1.192,1.192,0,0,0,7.5-4.517V-6.906a.855.855,0,0,1,.854-.854h.125a.856.856,0,0,1,.854.854v5.6c0,.037,0,.075,0,.114C9.474.227,9.36,4.323,7.211,6.141a1.194,1.194,0,0,0-.422.909v3.774H-4.638V8.2a1.193,1.193,0,0,0-.481-.957C-5.16,7.215-9.172,4.183-9.374.863m18.1,34.461H-6.454V19.333H8.721Zm0-18.373H-6.454V13.2H8.721Z" transform="translate(11.85 12.937)" fill="#5d7ada"/></g><g transform="translate(16.891 0)"><path d="M15.358,8.826l5.451,2.3a3.14,3.14,0,0,0,4.112-1.669l.663-1.57a3.136,3.136,0,0,0-1.673-4.112l-6.468-2.72.3-1.082a.347.347,0,0,0,.009-.042,3.214,3.214,0,0,0-.393-2.446,3.222,3.222,0,0,0-2.005-1.451l-.123-.028a3.2,3.2,0,0,0-1.609.029,3.23,3.23,0,0,0-2.182-1.778l-.119-.028a3.226,3.226,0,0,0-1.567.015C9.711-5.837,9.665-5.92,9.617-6A3.219,3.219,0,0,0,7.61-7.449l-.123-.029a3.212,3.212,0,0,0-1.308-.039,3.373,3.373,0,0,0-.286-.591A3.22,3.22,0,0,0,3.882-9.561l-.118-.028A3.213,3.213,0,0,0,1.318-9.2,3.22,3.22,0,0,0-.129-7.207l-.211.788L-8.73-9.943l-.013-.006c-.022-.009-.046-.017-.068-.024a.336.336,0,0,0-.046-.015A.548.548,0,0,0-8.915-10l-.059-.013a.461.461,0,0,1-.05-.007c-.024,0-.048-.006-.072-.007l-.018,0-7.978-.512a1.181,1.181,0,0,0-1.164.7A1.19,1.19,0,0,0-18-8.507l5.607,5.477.006.006,0,0a.04.04,0,0,1,.009.007.8.8,0,0,0,.073.064l.037.029c.015.009.028.02.04.029a.112.112,0,0,0,.011.007c.022.015.042.026.062.039a3.214,3.214,0,0,0,.477.253l5.1,2.156a24.731,24.731,0,0,0-.812,3.6c-.652,3.735,2.013,7.609,2.909,8.784l0,5.416h-.992a1.19,1.19,0,0,0-1.19,1.192V63.183a1.19,1.19,0,0,0,1.19,1.19H12.1a1.191,1.191,0,0,0,1.192-1.19V33.371a1.192,1.192,0,0,0-2.384,0v28.62H-4.271V25.872H10.9v3.309a1.192,1.192,0,1,0,2.384,0V18.554A1.192,1.192,0,0,0,12.1,17.362h-.5l.011-3.078a10.5,10.5,0,0,0,3.75-5.458m6.321-3.4,1.308.549a.756.756,0,0,1,.4.99l-.663,1.57a.757.757,0,0,1-.992.4l-1.392-.588Zm-5.688.88.81-2.929L19.483,4.5l-1.337,2.92-2.185-.924c.013-.081.024-.145.031-.193m-27.9-12.193-2.121-2.072,3.012.195Zm1.954,1.438L-8.6-7.306-.965-4.1-1.8-1.007ZM10.9,23.49H-4.271V19.744H10.9ZM9.88,12.539A1.187,1.187,0,0,0,9.228,13.6l-.013,3.642h-11.3l0-5.708a1.2,1.2,0,0,0-.279-.766C-2.4,10.727-5.608,6.85-5.036,3.572A24.963,24.963,0,0,1-4.37.494l2.152.909a1.193,1.193,0,0,0,.806.736A1.192,1.192,0,0,0,.049,1.3L2.176-6.6c0-.011.006-.022.009-.033a.855.855,0,0,1,.382-.531.853.853,0,0,1,.648-.1l.119.028a.852.852,0,0,1,.529.384.845.845,0,0,1,.1.645L3.847-5.7,2.442-.842A1.194,1.194,0,0,0,3.257.635a1.206,1.206,0,0,0,.331.046A1.192,1.192,0,0,0,4.732-.18l1.355-4.7a.851.851,0,0,1,.848-.281l.121.029a.841.841,0,0,1,.531.382.843.843,0,0,1,.1.634L6.445.1A1.191,1.191,0,1,0,8.73.778l1.155-3.9a.846.846,0,0,1,.883-.325l.121.028a.855.855,0,0,1,.632,1.028l-.18.76L10.326,1.6A1.191,1.191,0,0,0,11.107,3.1a1.209,1.209,0,0,0,.356.055A1.191,1.191,0,0,0,12.6,2.317L13.628-.959,13.639-1l.011-.039a.856.856,0,0,1,1.028-.634l.121.029a.857.857,0,0,1,.637,1.012L13.676,5.737a1.073,1.073,0,0,0-.033.152c-.006.051-.753,5.122-3.763,6.65" transform="translate(18.359 10.551)" fill="#5d7ada"/></g><g transform="translate(0 30.851)"><path d="M10.733,5.272V-.271A3.24,3.24,0,0,0,7.5-3.507H7.373a3.209,3.209,0,0,0-1.557.4A3.235,3.235,0,0,0,3.281-4.331H3.158a3.239,3.239,0,0,0-1.522.376A3.232,3.232,0,0,0-.84-5.108H-.965a3.243,3.243,0,0,0-1.284.264A3.239,3.239,0,0,0-4.952-6.3h-.125A3.24,3.24,0,0,0-8.313-3.064V.054A3.933,3.933,0,0,0-11.4.805c-1.666,1.394-1.5,4.162-1.337,6.837.222,3.651,3.478,6.714,4.733,7.767v2.048h-.626a1.191,1.191,0,0,0-1.19,1.192V36.581a1.19,1.19,0,0,0,1.19,1.19H8.932a1.19,1.19,0,0,0,1.192-1.19V18.649a1.192,1.192,0,0,0-1.192-1.192h-.74V14.2c2.931-2.968,2.6-8.261,2.542-8.933M7.74,35.389H-7.437v-9.42H7.74Zm0-11.8H-7.435V19.841H7.74ZM6.23,12.776a1.188,1.188,0,0,0-.422.909v3.774H-5.619V14.836A1.2,1.2,0,0,0-6.1,13.88c-1.128-.836-4.086-3.611-4.255-6.382-.114-1.89-.257-4.242.487-4.865a2.059,2.059,0,0,1,1.556-.174V4.076a1.19,1.19,0,0,0,1.19,1.19,1.19,1.19,0,0,0,1.192-1.19V-3.066a.856.856,0,0,1,.854-.854h.125a.856.856,0,0,1,.854.854v4.6a1.19,1.19,0,0,0,1.192,1.19,1.19,1.19,0,0,0,1.19-1.19V-2.276a.853.853,0,0,1,.751-.45H-.84a.856.856,0,0,1,.854.854V1.534a1.191,1.191,0,0,0,2.382,0V-1.481a.847.847,0,0,1,.762-.466h.123a.854.854,0,0,1,.854.854V2.118a1.192,1.192,0,0,0,2.384,0V-.271a.855.855,0,0,1,.854-.854H7.5a.856.856,0,0,1,.856.854v5.6c0,.037,0,.075.006.114.136,1.423.022,5.517-2.127,7.337" transform="translate(12.831 6.302)" fill="#5d7ada"/></g></g></g></svg>