<svg xmlns="http://www.w3.org/2000/svg" xmlns:xlink="http://www.w3.org/1999/xlink" width="161.781" height="77.384" viewBox="0 0 161.781 77.384">
  <defs>
    <clipPath id="clip-path">
      <path id="Caminho_128" data-name="Caminho 128" d="M0,42.408H161.781V-34.976H0Z" transform="translate(0 34.976)" fill="#5d7ada"/>
    </clipPath>
  </defs>
  <g id="Grupo_112" data-name="Grupo 112" transform="translate(0 34.976)">
    <g id="Grupo_108" data-name="Grupo 108" transform="translate(0 -34.976)" clip-path="url(#clip-path)">
      <g id="Grupo_107" data-name="Grupo 107" transform="translate(0.001 0)">
        <path id="Caminho_127" data-name="Caminho 127" d="M1.38,27.223C6.544,40.509,17.759,50.549,32.147,54.764l.569.168.569-.168c14.386-4.215,25.6-14.255,30.765-27.539,2.781-7.149,2.606-14.954,2.438-22.505-.038-1.664-.073-3.312-.077-4.932q-.007-3.578.009-7.157c.007-3.213.015-6.429,0-9.64L66.407-18.5l-1.429-.434c-.476-.144-11.859-3.516-32.262-3.516C12.759-22.452.962-19.085.471-18.943l-1.451.423-.007,1.511C-1-13.806-1-10.6-.987-7.4c0,2.4.011,4.792.007,7.186,0,1.62-.04,3.263-.075,4.925-.17,7.553-.345,15.361,2.436,22.51m58.9-1.465c-4.64,11.928-14.664,21-27.563,24.952a45.55,45.55,0,0,1-11-5.038c23.525-14.14,35.4-30.081,40.763-39.345.137,6.677.117,13.487-2.195,19.43M62.372-7.381q-.007,2.426,0,4.852A69.2,69.2,0,0,1,53.316,12.7C47.2,20.784,36.143,32.546,18.089,43.108a41.371,41.371,0,0,1-8.058-8.394C25.574,27.9,37.663,14.377,45.161,4.027a143.084,143.084,0,0,0,12.37-20.454c2.155.381,3.794.739,4.845.993.009,2.686,0,5.367,0,8.053M2.989,4.8c.038-1.69.073-3.363.08-5q0-3.6-.009-7.206c-.007-2.673-.015-5.345,0-8.018a133,133,0,0,1,29.661-2.98A152.143,152.143,0,0,1,53.327-17.08C48.949-8.447,32.647,20.767,7.816,31.283A40.627,40.627,0,0,1,5.15,25.756C2.663,19.36,2.829,11.959,2.989,4.8" transform="translate(1.138 22.452)" fill="#5d7ada"/>
      </g>
    </g>
    <g id="Grupo_109" data-name="Grupo 109" transform="translate(11.858 -20.682)">
      <path id="Caminho_129" data-name="Caminho 129" d="M12.336,1.568,9.473-1.293-2.809,10.988l-4.5-4.5-2.861,2.861,7.365,7.363Z" transform="translate(10.174 1.293)" fill="#5d7ada"/>
    </g>
    <g id="Grupo_111" data-name="Grupo 111" transform="translate(0 -34.976)" clip-path="url(#clip-path)">
      <g id="Grupo_110" data-name="Grupo 110" transform="translate(78.535 25.206)">
        <path id="Caminho_130" data-name="Caminho 130" d="M2.193,14.743H7.707l4-26.523H7.895L5.176,8.793H5.1L2.381-11.781h-4.19Zm9.368,0h3.852L16.17,9.55h4.719V9.475l.754,5.268H25.8L21.493-11.781H15.867Zm5.1-8.788L18.473-7.163h.075L20.4,5.955ZM27.8,14.743H38.79V10.957H31.954V-11.781H27.8Zm19.036.378c4.08,0,6.193-2.423,6.193-6.664V-11.781h-4V8.76c0,1.894-.794,2.578-2.117,2.578S44.8,10.654,44.8,8.76V-11.781H40.646V8.457c0,4.241,2.113,6.664,6.193,6.664m9.142-.378H67.309V10.957H60.132V2.8h5.7V-.979h-5.7V-8h7.177v-3.786H55.981Zm19.187.378c4.08,0,6.268-2.423,6.268-6.741,0-3.3-1.093-5.421-4.567-8.492C74.148-2.5,73.276-3.9,73.276-5.836c0-1.819.757-2.54,2.082-2.54s2.08.721,2.08,2.615V-4.4H81.36v-1.1c0-4.244-2-6.664-6.042-6.664s-6.191,2.42-6.191,6.589c0,3.033,1.131,5.193,4.6,8.264,2.721,2.389,3.553,3.792,3.553,5.989,0,1.971-.832,2.655-2.155,2.655s-2.155-.684-2.155-2.58V6.941H69.05V8.455c0,4.244,2.038,6.666,6.118,6.666" transform="translate(1.809 12.159)" fill="#5d7ada"/>
      </g>
    </g>
  </g>
</svg>
