<svg xmlns="http://www.w3.org/2000/svg" width="403.727" height="615.181" viewBox="0 0 403.727 615.181">
  <g id="Grupo_126" data-name="Grupo 126" transform="translate(-1000.356 -36.733)" opacity="0.369">
    <path id="Caminho_184" data-name="Caminho 184" d="M1367.728,540.626a95.138,95.138,0,0,0,0-134.544L1223.545,261.9l-67.271,67.271a95.137,95.137,0,0,1-134.543,0l211.454,211.454A95.138,95.138,0,0,0,1367.728,540.626Z" transform="translate(7.491 82.424)" fill="none" stroke="#b8c2fd" stroke-miterlimit="10" stroke-width="2"/>
    <path id="Caminho_185" data-name="Caminho 185" d="M1156.273,277.052l67.271,67.272,144.183-144.183A95.137,95.137,0,1,0,1233.184,65.6L1021.73,277.052A95.136,95.136,0,0,1,1156.273,277.052Z" transform="translate(7.491 0)" fill="none" stroke="#b8c2fd" stroke-miterlimit="10" stroke-width="2"/>
    <path id="Caminho_186" data-name="Caminho 186" d="M1163.765,354.749l67.271-67.271-67.271-67.272a95.137,95.137,0,1,0,0,134.544Z" transform="translate(0 56.847)" fill="none" stroke="#b8c2fd" stroke-miterlimit="10" stroke-width="2"/>
  </g>
</svg>
