<svg xmlns="http://www.w3.org/2000/svg" xmlns:xlink="http://www.w3.org/1999/xlink" width="72.842" height="75.016" viewBox="0 0 72.842 75.016"><defs><clipPath id="a"><path d="M0,34.219H72.842V-40.8H0Z" transform="translate(0 40.797)" fill="#5d7ada"/></clipPath></defs><g transform="translate(0 40.797)"><g transform="translate(0 -40.797)" clip-path="url(#a)"><g transform="translate(9.105 6.251)"><path d="M24.228,0H6.937A11.557,11.557,0,0,0-1.569,3.751,11.558,11.558,0,0,0-10.068,0h-17.3a1.541,1.541,0,0,0-1.517,1.563V29.694a1.542,1.542,0,0,0,1.517,1.563h17.3a8.622,8.622,0,0,1,7.235,3.992,1.506,1.506,0,0,0,1.263.7,1.5,1.5,0,0,0,1.261-.7,8.623,8.623,0,0,1,7.245-3.992H24.228a1.541,1.541,0,0,0,1.517-1.563V1.563A1.539,1.539,0,0,0,24.228,0M22.711,28.131H6.937a11.557,11.557,0,0,0-8.506,3.751,11.558,11.558,0,0,0-8.5-3.751H-25.85V3.126h15.782A8.622,8.622,0,0,1-2.833,7.118a1.588,1.588,0,0,0,.318.329A1.546,1.546,0,0,0-.308,7.118,8.623,8.623,0,0,1,6.937,3.126H22.711Z" transform="translate(28.886 0)" fill="#5d7ada"/></g><g transform="translate(9.105 40.633)"><path d="M15.229,0a1.541,1.541,0,0,0-1.517,1.563,3.081,3.081,0,0,1-3.036,3.126H7.641A3.081,3.081,0,0,1,4.607,1.563,1.542,1.542,0,0,0,3.088,0H-18.157V3.126H1.762A6.119,6.119,0,0,0,7.641,7.815h3.036a6.116,6.116,0,0,0,5.878-4.689H36.474V0Z" transform="translate(18.157)" fill="#5d7ada"/></g></g><path d="M18.982-34h3.036v21.879H18.982Z" transform="translate(15.921 5.703)" fill="#5d7ada"/><path d="M8.253-34h9.106v3.126H8.253Z" transform="translate(6.922 5.703)" fill="#5d7ada"/><path d="M14.856-34h3.036v3.126H14.856Z" transform="translate(12.461 5.703)" fill="#5d7ada"/><path d="M11.554-30.6H20.66v3.126H11.554Z" transform="translate(9.691 8.554)" fill="#5d7ada"/><path d="M8.253-30.6h3.036v3.126H8.253Z" transform="translate(6.922 8.554)" fill="#5d7ada"/><path d="M8.253-27.2h3.036v3.126H8.253Z" transform="translate(6.922 11.406)" fill="#5d7ada"/><path d="M11.554-27.2H14.59v3.126H11.554Z" transform="translate(9.691 11.406)" fill="#5d7ada"/><path d="M26.41-25.5h9.106v3.126H26.41Z" transform="translate(22.151 12.832)" fill="#5d7ada"/><path d="M23.109-25.5h3.036v3.126H23.109Z" transform="translate(19.383 12.832)" fill="#5d7ada"/><path d="M23.109-28.9h9.106v3.126H23.109Z" transform="translate(19.383 9.98)" fill="#5d7ada"/><path d="M29.711-28.9h3.036v3.126H29.711Z" transform="translate(24.92 9.98)" fill="#5d7ada"/><path d="M29.711-32.3h3.036v3.126H29.711Z" transform="translate(24.92 7.129)" fill="#5d7ada"/><path d="M26.41-32.3h3.036v3.126H26.41Z" transform="translate(22.151 7.129)" fill="#5d7ada"/><g transform="translate(0 -40.797)" clip-path="url(#a)"><g transform="translate(0 0)"><path d="M30.458,0h-60.7a6.163,6.163,0,0,0-6.072,6.252V53.136a6.163,6.163,0,0,0,6.072,6.252h60.7a6.163,6.163,0,0,0,6.07-6.252V6.252A6.163,6.163,0,0,0,30.458,0m3.036,53.136a3.081,3.081,0,0,1-3.036,3.126h-60.7a3.081,3.081,0,0,1-3.036-3.126V6.252a3.081,3.081,0,0,1,3.036-3.126h60.7a3.081,3.081,0,0,1,3.036,3.126Z" transform="translate(36.314)" fill="#5d7ada"/></g><g transform="translate(10.622 65.639)"><path d="M21.46,0H-21.032a4.623,4.623,0,0,0-4.553,4.689,4.623,4.623,0,0,0,4.553,4.689H21.46a4.623,4.623,0,0,0,4.553-4.689A4.623,4.623,0,0,0,21.46,0m0,6.252H-21.032a1.541,1.541,0,0,1-1.517-1.563,1.539,1.539,0,0,1,1.517-1.563H21.46a1.564,1.564,0,0,1,0,3.126" transform="translate(25.585)" fill="#5d7ada"/></g><g transform="translate(25.798 56.262)"><path d="M9,0H-9.212a1.541,1.541,0,0,0-1.517,1.563v9.378A1.541,1.541,0,0,0-9.212,12.5H9a1.541,1.541,0,0,0,1.517-1.563V1.563A1.541,1.541,0,0,0,9,0M7.482,9.378H-7.693V3.126H7.482Z" transform="translate(10.729)" fill="#5d7ada"/></g><g transform="translate(0 48.447)"><path d="M21.46,0A1.516,1.516,0,0,0,20.1.864L19,3.126H2.669L1.572.864A1.515,1.515,0,0,0,.215,0h-25.8V3.126H-.723l1.1,2.262a1.515,1.515,0,0,0,1.359.864H19.943a1.512,1.512,0,0,0,1.364-.864L22.4,3.126h24.86V0Z" transform="translate(25.585)" fill="#5d7ada"/></g></g></g></svg>