<svg xmlns="http://www.w3.org/2000/svg" xmlns:xlink="http://www.w3.org/1999/xlink" width="70.862" height="75.016" viewBox="0 0 70.862 75.016"><defs><clipPath id="a"><path d="M0,34.219H70.862V-40.8H0Z" transform="translate(0 40.797)" fill="#5d7ada"/></clipPath></defs><g transform="translate(0 40.797)"><g transform="translate(0 -40.797)" clip-path="url(#a)"><g transform="translate(0 -0.001)"><path d="M0,23.953A6.243,6.243,0,0,0,6.217,30.2H25.673L21.46,43.957H17.406v2.5H49.729v-2.5H24.06l4.485-14.635a1.257,1.257,0,0,0-.189-1.112A1.243,1.243,0,0,0,27.35,27.7H6.217a3.74,3.74,0,0,1-3.731-3.751v-2.5H26.107v-2.5H2.486V-12.305a3.74,3.74,0,0,1,3.731-3.749V16.451H8.7V-23.557a2.493,2.493,0,0,1,2.486-2.5h37.3v5a4.988,4.988,0,0,0,4.974,5H58.43V6.45h2.488v-22.5h1.243a3.739,3.739,0,0,1,3.729,3.749V23.953a3.759,3.759,0,0,1-1.263,2.813l.824.938-.826-.936a3.8,3.8,0,0,1-.6.436l1.243,2.162a6.255,6.255,0,0,0,3.109-5.413V-12.305a6.24,6.24,0,0,0-6.215-6.25H60.188l-9.58-9.637a1.27,1.27,0,0,0-.371-.25c-.037-.015-.07-.024-.1-.037a1.243,1.243,0,0,0-.338-.068c-.02,0-.042-.011-.064-.011H11.189a4.986,4.986,0,0,0-4.972,5v5A6.241,6.241,0,0,0,0-12.305ZM50.972-24.288l5.7,5.733H53.458a2.493,2.493,0,0,1-2.486-2.5Z" transform="translate(0 28.558)" fill="#5d7ada"/></g></g><path d="M6.085-38.077H8.571v2.5H6.085Z" transform="translate(5.104 2.281)" fill="#5d7ada"/><path d="M8.789-38.077h2.486v2.5H8.789Z" transform="translate(7.372 2.281)" fill="#5d7ada"/><path d="M11.494-38.077H13.98v2.5H11.494Z" transform="translate(9.641 2.281)" fill="#5d7ada"/><g transform="translate(0 -40.797)" clip-path="url(#a)"><g transform="translate(11.189 15.003)"><path d="M20.415,7.984V-8.269a1.247,1.247,0,0,0-1.243-1.25H-23.1a1.247,1.247,0,0,0-1.243,1.25V19.237a1.248,1.248,0,0,0,1.243,1.25H-8.179v-2.5H-21.854V9.753l10.038-10.1L-.254,8.96a1.236,1.236,0,0,0,1.5.04l7.9-5.676,5.47,4.819,1.638-1.883L10.039.791A1.24,1.24,0,0,0,8.5.716L.56,6.417l-11.7-9.411a1.236,1.236,0,0,0-1.655.092l-9.061,9.118V-7.018H17.929v15Z" transform="translate(24.34 9.519)" fill="#5d7ada"/></g><g transform="translate(32.323 20.004)"><path d="M0,1.711a3.73,3.73,0,1,0,7.46,0,3.73,3.73,0,1,0-7.46,0m4.972,0A1.243,1.243,0,1,1,3.729.461a1.247,1.247,0,0,1,1.243,1.25" transform="translate(0 2.04)" fill="#5d7ada"/></g></g><g transform="translate(21.499 -12.926)"><path d="M0,1.141l2.486-2.5L4.244.409l-2.486,2.5Z" transform="translate(0 1.36)" fill="#5d7ada"/></g><g transform="translate(15.283 -9.176)"><path d="M0,2.281l4.974-5L6.732-.951l-4.974,5Z" transform="translate(0 2.72)" fill="#5d7ada"/></g><g transform="translate(0 -40.797)" clip-path="url(#a)"><g transform="translate(28.481 33.631)"><path d="M14.922,11.924a17.63,17.63,0,0,0-5.066-22.85A17.4,17.4,0,0,0-13.29-8.42,17.642,17.642,0,0,0-13.4,14.991,17.4,17.4,0,0,0,9.714,17.726l8.254,8.3a3.864,3.864,0,0,0,4.227.848,3.9,3.9,0,0,0,2.4-3.606,3.947,3.947,0,0,0-1.136-2.76Zm-15.2,6.491a14.961,14.961,0,0,1-14.918-15,14.962,14.962,0,0,1,14.918-15,14.962,14.962,0,0,1,14.92,15,14.978,14.978,0,0,1-14.92,15M20.71,24.667a1.381,1.381,0,0,1-.986-.41L11.645,16.13a17.792,17.792,0,0,0,1.87-2.083l8.179,8.225a1.4,1.4,0,0,1-.984,2.4" transform="translate(17.79 14.217)" fill="#5d7ada"/></g><g transform="translate(33.567 38.758)"><path d="M5.671,0a12.5,12.5,0,0,0,0,25.005A12.5,12.5,0,0,0,5.671,0m0,22.5a10,10,0,1,1,9.946-10,9.985,9.985,0,0,1-9.946,10" transform="translate(6.761)" fill="#5d7ada"/></g><g transform="translate(38.539 43.758)"><path d="M0,3.422H2.486a4.988,4.988,0,0,1,4.974-5v-2.5A7.489,7.489,0,0,0,0,3.422" transform="translate(0 4.08)" fill="#5d7ada"/></g></g><path d="M6.085-35.358H40.894v2.5H6.085Z" transform="translate(5.104 4.562)" fill="#5d7ada"/></g></svg>