<svg xmlns="http://www.w3.org/2000/svg" xmlns:xlink="http://www.w3.org/1999/xlink" width="71.706" height="71.706" viewBox="0 0 71.706 71.706"><defs><clipPath id="a"><path d="M0,30.448H71.706V-41.258H0Z" transform="translate(0 41.258)" fill="#5d7ada"/></clipPath></defs><g clip-path="url(#a)"><g transform="translate(4.626 4.627)"><path d="M23.039,19.4l2.073-2.073-1.635-1.635L21.4,17.763,19.221,15.58A21.835,21.835,0,0,0,21.983,4.942c0-.33-.035-.65-.05-.977a12.029,12.029,0,0,0,9.3-11.745H28.921a9.73,9.73,0,0,1-7.214,9.425A21.989,21.989,0,0,0,.007-17.034c-.328,0-.65.035-.975.05a12.033,12.033,0,0,0-11.747-9.3v2.313a9.73,9.73,0,0,1,9.425,7.214,21.987,21.987,0,0,0-18.676,21.7c0,.33.035.65.049.975a12.033,12.033,0,0,0-9.3,11.747h2.313a9.73,9.73,0,0,1,7.214-9.425A21.987,21.987,0,0,0,.007,26.915a21.829,21.829,0,0,0,10.638-2.76l2.183,2.183-2.073,2.073,1.635,1.635,2.073-2.073L25.509,39.018a6.064,6.064,0,0,0,8.577-8.574ZM.007-14.72A19.674,19.674,0,0,1,19.435,2.074l-2.279.379A17.358,17.358,0,0,0,.007-12.407c-.059,0-.116.009-.176.009L-.55-14.691c.188-.007.37-.03.558-.03m0,4.627A15.053,15.053,0,0,1,15.043,4.942,15.053,15.053,0,0,1,.007,19.977a15.035,15.035,0,0,1,0-30.071M-19.653,4.942A19.672,19.672,0,0,1-2.86-14.486l.379,2.279A17.36,17.36,0,0,0-17.341,4.942c0,.059.009.116.01.176l-2.294.382c-.005-.188-.028-.37-.028-.558M.007,24.6A19.674,19.674,0,0,1-19.42,7.809l2.28-.379A17.357,17.357,0,0,0,.007,22.29,17.368,17.368,0,0,0,17.356,4.942c0-.059-.009-.116-.009-.176l2.292-.382c.007.188.03.368.03.558A19.684,19.684,0,0,1,.007,24.6M12.65,22.886a22.114,22.114,0,0,0,5.3-5.3L19.768,19.4l-5.3,5.3ZM29.8,38.481a3.723,3.723,0,0,1-2.652-1.1L16.1,26.338l5.3-5.3L32.451,32.08a3.751,3.751,0,0,1-2.652,6.4" transform="translate(31.219 26.285)" fill="#5d7ada"/></g><g transform="translate(50.888 0)"><path d="M4.42,8.84A10.419,10.419,0,0,0,14.829-1.569,10.419,10.419,0,0,0,4.42-11.978,10.419,10.419,0,0,0-5.989-1.569,10.419,10.419,0,0,0,4.42,8.84M7.889,5.734a8.034,8.034,0,0,1-3.469.793A8.034,8.034,0,0,1,.951,5.734V4.213a3.469,3.469,0,1,1,6.938,0ZM2.107-3.882A2.316,2.316,0,0,1,4.42-6.2,2.316,2.316,0,0,1,6.733-3.882,2.316,2.316,0,0,1,4.42-1.569,2.316,2.316,0,0,1,2.107-3.882M4.42-9.665a8.106,8.106,0,0,1,8.1,8.1A8.073,8.073,0,0,1,10.192,4.1,5.781,5.781,0,0,0,7.651-.58a4.605,4.605,0,0,0,1.4-3.3A4.631,4.631,0,0,0,4.42-8.509,4.631,4.631,0,0,0-.207-3.882a4.605,4.605,0,0,0,1.4,3.3A5.775,5.775,0,0,0-1.352,4.1,8.073,8.073,0,0,1-3.676-1.569a8.106,8.106,0,0,1,8.1-8.1" transform="translate(5.989 11.978)" fill="#5d7ada"/></g><g transform="translate(0 0)"><path d="M4.42,8.84A10.419,10.419,0,0,0,14.829-1.569,10.419,10.419,0,0,0,4.42-11.978,10.419,10.419,0,0,0-5.989-1.569,10.419,10.419,0,0,0,4.42,8.84M7.889,5.734a8.034,8.034,0,0,1-3.469.793A8.034,8.034,0,0,1,.951,5.734V4.213a3.469,3.469,0,1,1,6.938,0ZM2.107-3.882A2.316,2.316,0,0,1,4.42-6.2,2.316,2.316,0,0,1,6.733-3.882,2.316,2.316,0,0,1,4.42-1.569,2.316,2.316,0,0,1,2.107-3.882M4.42-9.665a8.106,8.106,0,0,1,8.1,8.1A8.073,8.073,0,0,1,10.192,4.1,5.781,5.781,0,0,0,7.651-.58a4.605,4.605,0,0,0,1.4-3.3A4.631,4.631,0,0,0,4.42-8.509,4.631,4.631,0,0,0-.207-3.882a4.605,4.605,0,0,0,1.4,3.3A5.784,5.784,0,0,0-1.352,4.1,8.073,8.073,0,0,1-3.676-1.569a8.106,8.106,0,0,1,8.1-8.1" transform="translate(5.989 11.978)" fill="#5d7ada"/></g><g transform="translate(0 50.888)"><path d="M4.42,0A10.409,10.409,0,1,0,14.829,10.409,10.419,10.419,0,0,0,4.42,0M7.889,17.712a7.989,7.989,0,0,1-6.938,0V16.191a3.469,3.469,0,1,1,6.938,0ZM2.107,8.1A2.313,2.313,0,1,1,4.42,10.409,2.316,2.316,0,0,1,2.107,8.1m8.085,7.981A5.781,5.781,0,0,0,7.651,11.4a4.627,4.627,0,1,0-6.462,0,5.784,5.784,0,0,0-2.541,4.679,8.093,8.093,0,1,1,13.867-5.668,8.073,8.073,0,0,1-2.324,5.668" transform="translate(5.989)" fill="#5d7ada"/></g></g><g transform="translate(23.131 24.287)"><path d="M0,3.929v8.1H25.444V-.7H18.5V9.711H16.191V-5.324H9.253V9.711H6.94V3.929ZM20.818,1.616h2.313v8.1H20.818ZM11.566-3.011H13.88V9.711H11.566ZM4.627,9.711H2.313V6.242H4.627Z" transform="translate(0 5.324)" fill="#5d7ada"/></g></svg>