<svg xmlns="http://www.w3.org/2000/svg" xmlns:xlink="http://www.w3.org/1999/xlink" width="75.008" height="75.008" viewBox="0 0 75.008 75.008"><defs><clipPath id="a"><path d="M0,33.75H75.008V-41.258H0Z" transform="translate(0 41.258)" fill="#5d7ada"/></clipPath></defs><g transform="translate(0 41.258)"><g transform="translate(0 -41.258)" clip-path="url(#a)"><g transform="translate(29.329 17.579)"><path d="M.659,6.065H2.483A6.747,6.747,0,0,0,9.222-.675,6.747,6.747,0,0,0,2.483-7.414H.659A1.466,1.466,0,0,0-.806-5.949V4.6A1.466,1.466,0,0,0,.659,6.065M2.125-4.483h.358A3.814,3.814,0,0,1,6.293-.675,3.814,3.814,0,0,1,2.483,3.134H2.125Z" transform="translate(0.806 7.414)" fill="#5d7ada"/></g><g transform="translate(16.312 17.581)"><path d="M.449,6.03a1.445,1.445,0,0,0,.467.076,1.462,1.462,0,0,0,1.387-1l.109-.32H6.518l.107.32A1.465,1.465,0,0,0,9.4,4.175L5.854-6.373a1.467,1.467,0,0,0-1.389-1,1.467,1.467,0,0,0-1.389,1L-.472,4.175A1.464,1.464,0,0,0,.449,6.03M4.465-1.313,5.533,1.857H3.4Z" transform="translate(0.549 7.371)" fill="#5d7ada"/></g><g transform="translate(18.367 43.949)"><path d="M1.126,1.126A1.476,1.476,0,0,0,1.555.089,1.469,1.469,0,0,0,1.126-.945,1.481,1.481,0,0,0,.089-1.376,1.471,1.471,0,0,0-.945-.945,1.463,1.463,0,0,0-1.376.089,1.47,1.47,0,0,0-.945,1.126a1.469,1.469,0,0,0,1.034.429,1.48,1.48,0,0,0,1.036-.429" transform="translate(1.376 1.376)" fill="#5d7ada"/></g><g transform="translate(58.6 22.268)"><path d="M.659,0A1.476,1.476,0,0,0-.377.429a1.466,1.466,0,0,0,0,2.073,1.484,1.484,0,0,0,1.036.429A1.465,1.465,0,0,0,2.125,1.465,1.476,1.476,0,0,0,1.7.429,1.476,1.476,0,0,0,.659,0" transform="translate(0.806 0)" fill="#5d7ada"/></g><g transform="translate(0 0)"><path d="M.659,3.955h.878V40.579A1.464,1.464,0,0,0,3,42.045H13.167a1.464,1.464,0,1,0,0-2.929h-8.7V3.955H57.794v9.083a1.465,1.465,0,0,0,2.931,0V3.955H61.6A1.466,1.466,0,0,0,63.069,2.49V-3.37A1.466,1.466,0,0,0,61.6-4.835H.659A1.466,1.466,0,0,0-.806-3.37V2.49A1.466,1.466,0,0,0,.659,3.955M2.125-1.9H60.138V1.026H2.125Z" transform="translate(0.806 4.835)" fill="#5d7ada"/></g><g transform="translate(-0.001 11.72)"><path d="M32.036,12.575a6.513,6.513,0,0,0,1.418-4.061V7.835a6.549,6.549,0,1,0-13.1,0v.678a6.5,6.5,0,0,0,.814,3.16l-.425-.107a15.373,15.373,0,0,1-7.93-4.885A4,4,0,0,0,8.3,5.586V-13.907a1.466,1.466,0,0,0-1.465-1.465H-29.493a1.466,1.466,0,0,0-1.465,1.465V8.361a1.466,1.466,0,0,0,1.465,1.465H5.853a3.927,3.927,0,0,0,.667,1.736L7.9,13.551a18.309,18.309,0,0,0,2.949,3.307H-13.469a1.466,1.466,0,0,0-1.465,1.465,1.466,1.466,0,0,0,1.465,1.465H15.356l3.5,1.658v14.3a10.479,10.479,0,0,0-3.514-2.407,6.212,6.212,0,0,0,1.554-4.116v-.636a6.244,6.244,0,1,0-12.488,0v.636a6.22,6.22,0,0,0,1.553,4.116A10.515,10.515,0,0,0,.979,37.667,10.519,10.519,0,0,0-4,33.344a6.212,6.212,0,0,0,1.554-4.116v-.636a6.251,6.251,0,0,0-6.243-6.245,6.252,6.252,0,0,0-6.245,6.245v.636a6.212,6.212,0,0,0,1.554,4.116,10.519,10.519,0,0,0-4.98,4.323,10.515,10.515,0,0,0-4.978-4.323,6.222,6.222,0,0,0,1.554-4.116v-.636a6.252,6.252,0,0,0-6.245-6.245,6.252,6.252,0,0,0-6.245,6.245v.636a6.212,6.212,0,0,0,1.554,4.116A10.471,10.471,0,0,0-39.163,43v3.454A1.464,1.464,0,0,0-37.7,47.915H34.382a1.463,1.463,0,0,0,1.464-1.464V18.218a6.1,6.1,0,0,0-3.809-5.643m-8.752-4.74a3.62,3.62,0,1,1,7.239,0v.678a3.624,3.624,0,0,1-3.543,3.618h-.153a3.624,3.624,0,0,1-3.543-3.618ZM5.373,6.9h-33.4V-12.441h33.4Zm11,10.13a15.475,15.475,0,0,1-6.067-5.147L8.927,9.891a1.062,1.062,0,0,1,.145-1.376A1.058,1.058,0,0,1,10.6,8.6a18.289,18.289,0,0,0,9.434,5.81l2.427.609a1.471,1.471,0,0,0,.356.044h4.014l.076,0,.076,0h2.778a3.161,3.161,0,0,1,3.158,3.158V31.069H21.783V20.521a1.464,1.464,0,0,0-.838-1.324ZM7.333,28.592a3.315,3.315,0,0,1,6.63,0v.636a3.315,3.315,0,0,1-6.63,0Zm-19.338,0a3.318,3.318,0,0,1,3.316-3.314,3.317,3.317,0,0,1,3.314,3.314v.636a3.318,3.318,0,0,1-3.314,3.314,3.319,3.319,0,0,1-3.316-3.314Zm-19.337,0a3.316,3.316,0,0,1,3.314-3.314,3.317,3.317,0,0,1,3.314,3.314v.636a3.318,3.318,0,0,1-3.314,3.314,3.317,3.317,0,0,1-3.314-3.314ZM-36.232,43a7.534,7.534,0,0,1,7.525-7.525h1.358A7.534,7.534,0,0,1-19.825,43v1.989H-36.232Zm19.338,0a7.533,7.533,0,0,1,7.525-7.525h1.358A7.534,7.534,0,0,1-.486,43v1.989H-16.894ZM2.444,43a7.533,7.533,0,0,1,7.525-7.525h1.358A7.534,7.534,0,0,1,18.852,43v1.989H2.444Zm30.472,1.989h-4.1V39.492a1.465,1.465,0,1,0-2.931,0v5.494h-4.1V34H32.916Z" transform="translate(39.163 15.372)" fill="#5d7ada"/></g></g></g></svg>