<svg xmlns="http://www.w3.org/2000/svg" xmlns:xlink="http://www.w3.org/1999/xlink" width="79.673" height="71.706" viewBox="0 0 79.673 71.706"><defs><clipPath id="a"><path d="M0,30.448H79.673V-41.258H0Z" transform="translate(0 41.258)" fill="#5d7ada"/></clipPath></defs><g clip-path="url(#a)"><path d="M31.576,0H-29.508a5.311,5.311,0,0,0-5.311,5.311V47.8h-6.639a1.328,1.328,0,0,0-1.328,1.328,5.311,5.311,0,0,0,5.311,5.311H1.034V70.378a1.327,1.327,0,0,0,2.266.939l7.028-7.028,7.028,7.028a1.334,1.334,0,0,0,.94.389,1.3,1.3,0,0,0,.507-.1,1.327,1.327,0,0,0,.82-1.227V54.443h3.983a5.311,5.311,0,0,0,5.311-5.311V6.639h6.639a1.328,1.328,0,0,0,1.328-1.328A5.311,5.311,0,0,0,31.576,0M26.264,5.311V47.8H20.953v2.656h4.953a2.653,2.653,0,0,1-2.3,1.328H19.625V50.459H16.97V67.173l-5.7-5.7a1.327,1.327,0,0,0-1.879,0l-5.7,5.7V50.459H1.034v1.328H-37.475a2.649,2.649,0,0,1-2.3-1.328H-.294V47.8h-31.87V5.311a2.655,2.655,0,0,1,2.656-2.656H27a5.257,5.257,0,0,0-.739,2.656m3.012-1.328a2.658,2.658,0,0,1,4.6,0Z" transform="translate(42.786)" fill="#5d7ada"/><g transform="translate(40.419 25.248)"><path d="M10.707,6.925l-1.7-3.047L10.713.833a1.328,1.328,0,0,0-.506-1.809c-.031-.017-.064-.035-.1-.05L6.939-2.478,6.53-5.943A1.329,1.329,0,0,0,5.055-7.106c-.033,0-.068.01-.1.016l-3.422.68L-.837-8.976A1.369,1.369,0,0,0-2.772-8.99l-.014.014L-5.154-6.411l-3.422-.68a1.33,1.33,0,0,0-1.561,1.046.938.938,0,0,0-.016.1l-.41,3.466-3.168,1.453A1.328,1.328,0,0,0-14.387.736c.016.035.033.068.05.1l1.708,3.043-1.708,3.043a1.328,1.328,0,0,0,.506,1.809c.031.017.064.035.1.05l3.168,1.455.41,3.467a1.329,1.329,0,0,0,1.476,1.163c.033,0,.066-.009.1-.016l3.422-.68,2.369,2.565a1.328,1.328,0,0,0,1.875.073q.039-.036.073-.073L1.532,14.17l3.422.68a1.312,1.312,0,0,0,1.039-.229,1.33,1.33,0,0,0,.53-.918l.41-3.466L10.1,8.784a1.328,1.328,0,0,0,.655-1.761c-.016-.033-.033-.066-.05-.1m-4.381-2.4L7.693,6.963,5.154,8.127a1.329,1.329,0,0,0-.765,1.051l-.327,2.779-2.746-.542a1.311,1.311,0,0,0-1.232.4l-1.9,2.056-1.9-2.053a1.32,1.32,0,0,0-.973-.428,1.182,1.182,0,0,0-.259.028l-2.744.542-.327-2.779a1.326,1.326,0,0,0-.765-1.051l-2.539-1.164,1.366-2.438a1.3,1.3,0,0,0,0-1.3v.005L-11.316.795-8.776-.37a1.326,1.326,0,0,0,.765-1.051L-7.685-4.2l2.744.542a1.308,1.308,0,0,0,1.232-.4l1.9-2.06,1.9,2.053a1.308,1.308,0,0,0,1.232.4l2.746-.544.327,2.779A1.326,1.326,0,0,0,5.154-.377L7.693.788,6.325,3.226a1.328,1.328,0,0,0,0,1.3" transform="translate(14.508 9.383)" fill="#5d7ada"/></g><g transform="translate(46.477 31.869)"><path d="M2.819,0A6.639,6.639,0,1,0,9.458,6.639,6.639,6.639,0,0,0,2.819,0m0,10.623A3.983,3.983,0,1,1,6.8,6.639a3.983,3.983,0,0,1-3.983,3.983" transform="translate(3.82)" fill="#5d7ada"/></g></g><path d="M16.809-36.674H38.056v2.656H16.809Z" transform="translate(12.405 44.641)" fill="#5d7ada"/><path d="M9.168-32.09h47.8v2.656H9.168Z" transform="translate(6.766 48.024)" fill="#5d7ada"/><path d="M9.168-29.033h47.8v2.656H9.168Z" transform="translate(6.766 50.28)" fill="#5d7ada"/><path d="M9.932-19.1H27.194v2.656H9.932Z" transform="translate(7.33 57.61)" fill="#5d7ada"/></svg>