<svg xmlns="http://www.w3.org/2000/svg" xmlns:xlink="http://www.w3.org/1999/xlink" width="122" height="98.398" viewBox="0 0 122 98.398">
  <defs>
    <clipPath id="clip-path">
      <path id="Caminho_86" data-name="Caminho 86" d="M0,50.7H122V-47.7H0Z" transform="translate(0 47.701)" fill="#5d7ada"/>
    </clipPath>
  </defs>
  <g id="Grupo_106" data-name="Grupo 106" transform="translate(0 47.701)">
    <g id="Grupo_69" data-name="Grupo 69" transform="translate(0 -47.701)" clip-path="url(#clip-path)">
      <g id="Grupo_67" data-name="Grupo 67" transform="translate(56.937 30.844)">
        <path id="Caminho_84" data-name="Caminho 84" d="M2.285,4.57A4.439,4.439,0,0,1-2.15.135a4.435,4.435,0,1,1,8.87,0A4.439,4.439,0,0,1,2.285,4.57m0-6.7A2.267,2.267,0,0,0,.02.135a2.265,2.265,0,0,0,4.53,0A2.267,2.267,0,0,0,2.285-2.128" transform="translate(2.15 4.3)" fill="#5d7ada"/>
      </g>
      <g id="Grupo_68" data-name="Grupo 68" transform="translate(47.585 11.73)">
        <path id="Caminho_85" data-name="Caminho 85" d="M2.284,4.57A4.438,4.438,0,0,1-2.149.135a4.434,4.434,0,1,1,8.868,0A4.439,4.439,0,0,1,2.284,4.57m0-6.7A2.266,2.266,0,0,0,.021.135a2.264,2.264,0,1,0,4.528,0A2.267,2.267,0,0,0,2.284-2.128" transform="translate(2.149 4.3)" fill="#5d7ada"/>
      </g>
    </g>
    <g id="Grupo_70" data-name="Grupo 70" transform="translate(74.755 -5.474)">
      <path id="Caminho_87" data-name="Caminho 87" d="M1.118,9.589h-2.17V1.573L9.541-9.022l1.535,1.535L1.118,2.47Z" transform="translate(1.052 9.022)" fill="#5d7ada"/>
    </g>
    <g id="Grupo_71" data-name="Grupo 71" transform="translate(66.429 -20.073)">
      <path id="Caminho_88" data-name="Caminho 88" d="M1.118,14.342h-2.17V7.916L8.988-2.208V-13.494h2.17V-1.313L1.118,8.811Z" transform="translate(1.052 13.494)" fill="#5d7ada"/>
    </g>
    <g id="Grupo_74" data-name="Grupo 74" transform="translate(0 -47.701)" clip-path="url(#clip-path)">
      <g id="Grupo_72" data-name="Grupo 72" transform="translate(73.119 19.844)">
        <path id="Caminho_89" data-name="Caminho 89" d="M2.285,4.57A4.44,4.44,0,0,1-2.15.135a4.434,4.434,0,1,1,8.868,0A4.44,4.44,0,0,1,2.285,4.57m0-6.7A2.267,2.267,0,0,0,.02.135a2.264,2.264,0,1,0,4.528,0A2.266,2.266,0,0,0,2.285-2.128" transform="translate(2.15 4.3)" fill="#5d7ada"/>
      </g>
      <g id="Grupo_73" data-name="Grupo 73" transform="translate(83.946 36.097)">
        <path id="Caminho_90" data-name="Caminho 90" d="M2.285,4.57A4.44,4.44,0,0,1-2.15.135a4.434,4.434,0,1,1,8.868,0A4.44,4.44,0,0,1,2.285,4.57m0-6.7A2.269,2.269,0,0,0,.02.135a2.264,2.264,0,1,0,4.528,0A2.268,2.268,0,0,0,2.285-2.13" transform="translate(2.15 4.3)" fill="#5d7ada"/>
      </g>
    </g>
    <g id="Grupo_75" data-name="Grupo 75" transform="translate(48.598 -5.474)">
      <path id="Caminho_92" data-name="Caminho 92" d="M6.248,9.589H4.078V2.47L-5.879-7.487l1.535-1.535L6.248,1.573Z" transform="translate(5.879 9.022)" fill="#5d7ada"/>
    </g>
    <g id="Grupo_79" data-name="Grupo 79" transform="translate(0 -47.701)" clip-path="url(#clip-path)">
      <g id="Grupo_76" data-name="Grupo 76" transform="translate(42.665 36.097)">
        <path id="Caminho_93" data-name="Caminho 93" d="M2.285,4.57A4.44,4.44,0,0,1-2.15.135a4.435,4.435,0,1,1,8.87,0A4.44,4.44,0,0,1,2.285,4.57m0-6.7A2.269,2.269,0,0,0,.02.135a2.265,2.265,0,0,0,4.53,0A2.269,2.269,0,0,0,2.285-2.13" transform="translate(2.15 4.3)" fill="#5d7ada"/>
      </g>
      <g id="Grupo_77" data-name="Grupo 77" transform="translate(16.255 0)">
        <path id="Caminho_94" data-name="Caminho 94" d="M42.745,28.47H30.964V26.3H42.745a11.8,11.8,0,0,0,0-23.6,8.354,8.354,0,0,0-1.165.111l-1.669.217L40,1.713c.033-.479.056-.767.056-1.06A16.091,16.091,0,0,0,23.98-15.421a16.08,16.08,0,0,0-7.531,1.879l-.943.5-.516-.93A20.7,20.7,0,0,0-3.082-24.617,20.7,20.7,0,0,0-23.752-3.945,20.733,20.733,0,0,0-23.362.03l.274,1.4-1.423-.111c-.163-.012-.322-.035-.481-.056a3.9,3.9,0,0,0-.514-.05,12.554,12.554,0,0,0-12.542,12.54A12.557,12.557,0,0,0-25.5,26.3H-4.223v2.17H-25.5A14.731,14.731,0,0,1-40.219,13.755a14.73,14.73,0,0,1,14.5-14.71,22.559,22.559,0,0,1-.2-2.991A22.867,22.867,0,0,1-3.082-26.787,22.87,22.87,0,0,1,16.362-15.922a18.28,18.28,0,0,1,7.618-1.671A18.264,18.264,0,0,1,42.225.553c.173-.012.344-.021.52-.021a13.968,13.968,0,0,1,0,27.937" transform="translate(40.219 26.787)" fill="#5d7ada"/>
      </g>
      <g id="Grupo_78" data-name="Grupo 78" transform="translate(22.537 34.751)">
        <path id="Caminho_95" data-name="Caminho 95" d="M1.257,6.071A8.283,8.283,0,0,1-1.183.179a8.283,8.283,0,0,1,2.44-5.891L2.792-4.177A6.128,6.128,0,0,0,.987.179a6.125,6.125,0,0,0,1.8,4.357Z" transform="translate(1.183 5.712)" fill="#5d7ada"/>
      </g>
    </g>
    <g id="Grupo_80" data-name="Grupo 80" transform="translate(52.627 -29.083)">
      <path id="Caminho_97" data-name="Caminho 97" d="M3.425,7.218-3.223-5.8l1.933-.988L5.358,6.229Z" transform="translate(3.223 6.791)" fill="#5d7ada"/>
    </g>
    <path id="Caminho_98" data-name="Caminho 98" d="M32.206-9.211h2.17v2.17h-2.17Zm0,2.17,0-7.164h2.17v2.17h-2.17Zm0,2.17,0-7.164h2.17v2.17h-2.17Z" transform="translate(34.229 30.292)" fill="#5d7ada"/>
    <path id="Caminho_99" data-name="Caminho 99" d="M36.237-11.784h2.17v2.17h-2.17Zm0,2.17,0-7.164h2.17v2.17h-2.17Z" transform="translate(38.513 32.865)" fill="#5d7ada"/>
    <path id="Caminho_100" data-name="Caminho 100" d="M28.386-11.784h2.17v2.17h-2.17Zm0,2.17,0-7.164h2.17v2.17h-2.17Z" transform="translate(30.169 32.865)" fill="#5d7ada"/>
    <g id="Grupo_82" data-name="Grupo 82" transform="translate(0 -47.701)" clip-path="url(#clip-path)">
      <g id="Grupo_81" data-name="Grupo 81" transform="translate(0.001 63.462)">
        <path id="Caminho_101" data-name="Caminho 101" d="M3.955,2.548a18.432,18.432,0,0,0-4.183,4.4L-3.082,4.885A30.562,30.562,0,0,1-.67,1.788,12.875,12.875,0,0,1,2.012-.505,11.724,11.724,0,0,1,5.258-1.912,15.571,15.571,0,0,1,9.318-2.4a12.057,12.057,0,0,1,4.305.736A10.431,10.431,0,0,1,16.994.382a9.116,9.116,0,0,1,2.215,3.1A9.657,9.657,0,0,1,20,7.393a11.158,11.158,0,0,1-.518,3.494,12.07,12.07,0,0,1-1.6,3.125,25.1,25.1,0,0,1-2.706,3.2q-1.624,1.649-3.886,3.616L2.086,29H20.342v3.542H-3.721V29.533l12.5-11.04q1.968-1.773,3.346-3.2A21.308,21.308,0,0,0,14.362,12.6a9.085,9.085,0,0,0,1.231-2.465,8.476,8.476,0,0,0,.367-2.488A6.364,6.364,0,0,0,15.4,4.916a6.406,6.406,0,0,0-3.715-3.4,7.638,7.638,0,0,0-2.657-.47,8.535,8.535,0,0,0-5.068,1.5" transform="translate(3.721 2.397)" fill="#5d7ada"/>
      </g>
    </g>
    <g id="Grupo_83" data-name="Grupo 83" transform="translate(26.523 16.006)">
      <path id="Caminho_103" data-name="Caminho 103" d="M4.342,0-4.085,2.9l.934,3.148,6.5-2.015V34.69H7.232V0Z" transform="translate(4.085)" fill="#5d7ada"/>
    </g>
    <g id="Grupo_85" data-name="Grupo 85" transform="translate(0 -47.701)" clip-path="url(#clip-path)">
      <g id="Grupo_84" data-name="Grupo 84" transform="translate(41.682 75.062)">
        <path id="Caminho_104" data-name="Caminho 104" d="M4.193,4.626a4.465,4.465,0,0,1-.877.545,4.413,4.413,0,0,1-1.042.344,6.247,6.247,0,0,1-1.269.118A4.989,4.989,0,0,1-.966,5.247,4.864,4.864,0,0,1-2.538,4.193a4.831,4.831,0,0,1-1.036-1.58A5.1,5.1,0,0,1-3.945.668V.641A5.048,5.048,0,0,1-3.574-1.3,5.015,5.015,0,0,1-2.538-2.884,4.806,4.806,0,0,1-.952-3.959a5.119,5.119,0,0,1,2.04-.394,6.337,6.337,0,0,1,1.236.111,4.986,4.986,0,0,1,1.013.3,4.384,4.384,0,0,1,.842.468,5.636,5.636,0,0,1,.718.606L3.545-1.3a5.172,5.172,0,0,0-1.153-.8A2.944,2.944,0,0,0,1.076-2.4,2.709,2.709,0,0,0-.048-2.16a2.665,2.665,0,0,0-.891.65,2.976,2.976,0,0,0-.578.957A3.262,3.262,0,0,0-1.725.612V.641a3.3,3.3,0,0,0,.208,1.172,3.053,3.053,0,0,0,.571.965,2.652,2.652,0,0,0,2.022.9,2.957,2.957,0,0,0,1.4-.3,5.412,5.412,0,0,0,1.139-.829L4.964,3.909a6.747,6.747,0,0,1-.771.718" transform="translate(3.945 4.353)" fill="#5d7ada"/>
      </g>
    </g>
    <g id="Grupo_86" data-name="Grupo 86" transform="translate(52.012 27.526)">
      <path id="Caminho_106" data-name="Caminho 106" d="M0,4.975V-4.681H7.269v1.892H2.1V-.832H6.648v1.89H2.1V3.085H7.337v1.89Z" transform="translate(0 4.681)" fill="#5d7ada"/>
    </g>
    <g id="Grupo_87" data-name="Grupo 87" transform="translate(60.979 27.526)">
      <path id="Caminho_107" data-name="Caminho 107" d="M3.489,4.975-1.187-1.164V4.975h-2.1V-4.681h1.958L3.2,1.264V-4.681H5.3V4.975Z" transform="translate(3.283 4.681)" fill="#5d7ada"/>
    </g>
    <g id="Grupo_88" data-name="Grupo 88" transform="translate(70.909 27.526)">
      <path id="Caminho_108" data-name="Caminho 108" d="M2.608,1.01v7.7H.483V1.01H-2.454V-.95h8V1.01Z" transform="translate(2.454 0.95)" fill="#5d7ada"/>
    </g>
    <g id="Grupo_91" data-name="Grupo 91" transform="translate(0 -47.701)" clip-path="url(#clip-path)">
      <g id="Grupo_89" data-name="Grupo 89" transform="translate(80.109 75.227)">
        <path id="Caminho_109" data-name="Caminho 109" d="M4.182,3.8a3.607,3.607,0,0,1-.85,1.359A3.467,3.467,0,0,1,2,5.967a5.38,5.38,0,0,1-1.751.27A4.229,4.229,0,0,1-2.819,5.161,4.266,4.266,0,0,1-3.935,1.947V-3.571H-1.81V1.891A2.559,2.559,0,0,0-1.26,3.678a1.972,1.972,0,0,0,1.531.6A2.012,2.012,0,0,0,1.8,3.7a2.426,2.426,0,0,0,.553-1.737V-3.571H4.477V1.877A5.647,5.647,0,0,1,4.182,3.8" transform="translate(3.935 3.571)" fill="#5d7ada"/>
      </g>
      <g id="Grupo_90" data-name="Grupo 90" transform="translate(90.412 75.227)">
        <path id="Caminho_110" data-name="Caminho 110" d="M3.021,4.975.952,1.885H-.717v3.09H-2.842V-4.681H1.572a3.951,3.951,0,0,1,2.684.842,2.961,2.961,0,0,1,.957,2.345v.027A3.037,3.037,0,0,1,4.642.443a3.3,3.3,0,0,1-1.5,1.083L5.5,4.975Zm.041-6.36A1.229,1.229,0,0,0,2.62-2.418a1.956,1.956,0,0,0-1.227-.344H-.717V.01H1.434A1.758,1.758,0,0,0,2.641-.364a1.256,1.256,0,0,0,.421-.992Z" transform="translate(2.842 4.681)" fill="#5d7ada"/>
      </g>
    </g>
    <g id="Grupo_92" data-name="Grupo 92" transform="translate(99.115 27.526)">
      <path id="Caminho_112" data-name="Caminho 112" d="M3.007,2.992V6.841H.882V3.033L-2.829-2.815H-.345l2.3,3.876L4.3-2.815H6.716Z" transform="translate(2.829 2.815)" fill="#5d7ada"/>
    </g>
    <g id="Grupo_93" data-name="Grupo 93" transform="translate(42.108 40.832)">
      <path id="Caminho_113" data-name="Caminho 113" d="M0,0V9.656H7.339V7.766H2.1V5.737H6.648V3.849H2.1V1.89H7.269V0Z" fill="#5d7ada"/>
    </g>
    <g id="Grupo_97" data-name="Grupo 97" transform="translate(0 -47.701)" clip-path="url(#clip-path)">
      <g id="Grupo_94" data-name="Grupo 94" transform="translate(50.799 88.532)">
        <path id="Caminho_114" data-name="Caminho 114" d="M4.392,3.468A4.534,4.534,0,0,1,3.337,5,5,5,0,0,1,1.708,6.02a5.619,5.619,0,0,1-2.075.373H-4.132V-3.263H-.367A5.7,5.7,0,0,1,1.708-2.9a4.92,4.92,0,0,1,1.63,1.015A4.533,4.533,0,0,1,4.392-.361a4.821,4.821,0,0,1,.371,1.9v.029a4.856,4.856,0,0,1-.371,1.9m-1.848-1.9A3.151,3.151,0,0,0,2.331.392a2.8,2.8,0,0,0-.594-.924,2.628,2.628,0,0,0-.918-.6A3.186,3.186,0,0,0-.367-1.347H-2.009V4.475H-.367A3.27,3.27,0,0,0,.819,4.268a2.558,2.558,0,0,0,.918-.594,2.825,2.825,0,0,0,.594-.91,3.079,3.079,0,0,0,.212-1.172Z" transform="translate(4.132 3.263)" fill="#5d7ada"/>
      </g>
      <g id="Grupo_95" data-name="Grupo 95" transform="translate(60.882 88.532)">
        <path id="Caminho_115" data-name="Caminho 115" d="M4.182,3.8a3.629,3.629,0,0,1-.848,1.359A3.49,3.49,0,0,1,2,5.967a5.38,5.38,0,0,1-1.751.27A4.224,4.224,0,0,1-2.817,5.161,4.259,4.259,0,0,1-3.935,1.947V-3.571H-1.81V1.891A2.559,2.559,0,0,0-1.26,3.678a1.975,1.975,0,0,0,1.531.6A2.012,2.012,0,0,0,1.8,3.7a2.426,2.426,0,0,0,.553-1.737V-3.571H4.479V1.877a5.6,5.6,0,0,1-.3,1.918" transform="translate(3.935 3.571)" fill="#5d7ada"/>
      </g>
      <g id="Grupo_96" data-name="Grupo 96" transform="translate(70.482 88.366)">
        <path id="Caminho_116" data-name="Caminho 116" d="M4.193,4.626a4.465,4.465,0,0,1-.877.545,4.509,4.509,0,0,1-1.042.344,6.247,6.247,0,0,1-1.269.118A4.989,4.989,0,0,1-.966,5.247,4.864,4.864,0,0,1-2.538,4.193a4.831,4.831,0,0,1-1.036-1.58A5.1,5.1,0,0,1-3.945.668V.641A5.048,5.048,0,0,1-3.574-1.3,5.015,5.015,0,0,1-2.538-2.884,4.806,4.806,0,0,1-.952-3.959a5.119,5.119,0,0,1,2.04-.394,6.353,6.353,0,0,1,1.236.111,4.986,4.986,0,0,1,1.013.3,4.384,4.384,0,0,1,.842.468,5.636,5.636,0,0,1,.718.606L3.545-1.3a5.172,5.172,0,0,0-1.153-.8A2.944,2.944,0,0,0,1.076-2.4,2.709,2.709,0,0,0-.048-2.16a2.665,2.665,0,0,0-.891.65,3,3,0,0,0-.578.957A3.262,3.262,0,0,0-1.725.612V.641a3.3,3.3,0,0,0,.208,1.172,3.031,3.031,0,0,0,.571.965,2.652,2.652,0,0,0,2.022.9,2.957,2.957,0,0,0,1.4-.3,5.412,5.412,0,0,0,1.139-.829L4.964,3.909a6.937,6.937,0,0,1-.771.718" transform="translate(3.945 4.353)" fill="#5d7ada"/>
      </g>
    </g>
    <g id="Grupo_98" data-name="Grupo 98" transform="translate(79.708 40.763)">
      <path id="Caminho_118" data-name="Caminho 118" d="M2.132,0-2.006,9.724H.16l.883-2.166H5.125l.883,2.166H8.23L4.092,0Zm.953,2.552L4.368,5.683H1.8Z" transform="translate(2.006)" fill="#5d7ada"/>
    </g>
    <g id="Grupo_99" data-name="Grupo 99" transform="translate(89.089 40.832)">
      <path id="Caminho_119" data-name="Caminho 119" d="M0,0V1.958H2.937v7.7H5.06v-7.7H8V0Z" fill="#5d7ada"/>
    </g>
    <path id="Caminho_120" data-name="Caminho 120" d="M47.634,4.873h2.125V-4.783H47.634Z" transform="translate(50.626 45.614)" fill="#5d7ada"/>
    <g id="Grupo_101" data-name="Grupo 101" transform="translate(0 -47.701)" clip-path="url(#clip-path)">
      <g id="Grupo_100" data-name="Grupo 100" transform="translate(101.818 88.366)">
        <path id="Caminho_121" data-name="Caminho 121" d="M5.089,3.571A5.036,5.036,0,0,1,4.02,5.157,4.943,4.943,0,0,1,2.393,6.232,5.289,5.289,0,0,1,.33,6.626a5.219,5.219,0,0,1-2.055-.394,5.068,5.068,0,0,1-1.621-1.06A4.79,4.79,0,0,1-4.408,3.6a4.955,4.955,0,0,1-.38-1.939V1.634A4.873,4.873,0,0,1-4.4-.3,4.968,4.968,0,0,1-3.332-1.891,4.965,4.965,0,0,1-1.7-2.966,5.271,5.271,0,0,1,.357-3.36a5.236,5.236,0,0,1,2.057.394A5.1,5.1,0,0,1,4.035-1.9,4.742,4.742,0,0,1,5.095-.332a4.937,4.937,0,0,1,.38,1.937v.029a4.9,4.9,0,0,1-.386,1.937M3.253,1.634A3.229,3.229,0,0,0,3.04.46a2.924,2.924,0,0,0-.606-.965A2.943,2.943,0,0,0,1.5-1.161,2.855,2.855,0,0,0,.33-1.4a2.917,2.917,0,0,0-1.18.235,2.7,2.7,0,0,0-.91.65A3.012,3.012,0,0,0-2.352.44a3.136,3.136,0,0,0-.215,1.165v.029a3.176,3.176,0,0,0,.215,1.172,2.891,2.891,0,0,0,.606.965,2.922,2.922,0,0,0,.924.656,2.81,2.81,0,0,0,1.178.241A2.9,2.9,0,0,0,1.53,4.433a2.657,2.657,0,0,0,.916-.648,3.05,3.05,0,0,0,.594-.959,3.161,3.161,0,0,0,.212-1.165Z" transform="translate(4.788 3.36)" fill="#5d7ada"/>
      </g>
    </g>
    <g id="Grupo_102" data-name="Grupo 102" transform="translate(113.419 40.832)">
      <path id="Caminho_123" data-name="Caminho 123" d="M3.34,0V5.945L-1.183,0h-1.96V9.656h2.1V3.517L3.629,9.656H5.438V0Z" transform="translate(3.143)" fill="#5d7ada"/>
    </g>
    <g id="Grupo_105" data-name="Grupo 105" transform="translate(0 -47.701)" clip-path="url(#clip-path)">
      <g id="Grupo_103" data-name="Grupo 103" transform="translate(41.465 64.649)">
        <path id="Caminho_124" data-name="Caminho 124" d="M2.368,2.757a1.806,1.806,0,0,1-.468.582,2.086,2.086,0,0,1-.7.365,2.87,2.87,0,0,1-.868.126,3.942,3.942,0,0,1-1.353-.248,4.164,4.164,0,0,1-1.211-.664l.466-.658a4.128,4.128,0,0,0,1.05.588,3.143,3.143,0,0,0,1.1.2,1.523,1.523,0,0,0,.924-.264.842.842,0,0,0,.359-.718V2.043a.634.634,0,0,0-.126-.394,1.118,1.118,0,0,0-.34-.295,2.731,2.731,0,0,0-.5-.221C.513,1.07.32,1.01.122.952-.12.882-.361.8-.6.719A3.056,3.056,0,0,1-1.265.4a1.6,1.6,0,0,1-.479-.479A1.3,1.3,0,0,1-1.929-.8V-.822a1.66,1.66,0,0,1,.157-.724,1.637,1.637,0,0,1,.437-.563,1.989,1.989,0,0,1,.67-.359,2.713,2.713,0,0,1,.846-.126,3.845,3.845,0,0,1,1.161.186,4.325,4.325,0,0,1,1.066.5l-.419.7a4.208,4.208,0,0,0-.906-.437,2.823,2.823,0,0,0-.928-.163,1.367,1.367,0,0,0-.875.258.79.79,0,0,0-.324.642v.025A.577.577,0,0,0-.91-.515a1.171,1.171,0,0,0,.353.281,3.179,3.179,0,0,0,.51.217q.288.1.6.192c.239.072.477.151.712.239A2.783,2.783,0,0,1,1.906.75a1.61,1.61,0,0,1,.462.491,1.347,1.347,0,0,1,.173.708v.023a1.715,1.715,0,0,1-.173.786" transform="translate(2.228 2.594)" fill="#5d7ada"/>
      </g>
      <g id="Grupo_104" data-name="Grupo 104" transform="translate(47.288 62.887)">
        <path id="Caminho_125" data-name="Caminho 125" d="M.92,3.248a.968.968,0,0,0,.289.8,1.167,1.167,0,0,0,.753.229,1.951,1.951,0,0,0,.45-.05,1.923,1.923,0,0,0,.45-.167v.79a2.011,2.011,0,0,1-.51.2,2.583,2.583,0,0,1-.6.066,2.441,2.441,0,0,1-.7-.095A1.45,1.45,0,0,1,.5,4.717,1.4,1.4,0,0,1,.13,4.17,2.172,2.172,0,0,1,0,3.368V-.372H-.866v-.815H0V-3.056H.92v1.869H2.886v.815H.92Z" transform="translate(0.866 3.056)" fill="#5d7ada"/>
      </g>
    </g>
  </g>
</svg>
