<svg xmlns="http://www.w3.org/2000/svg" xmlns:xlink="http://www.w3.org/1999/xlink" width="75.243" height="75.243" viewBox="0 0 75.243 75.243"><defs><clipPath id="a"><path d="M0,33.985H75.243V-41.258H0Z" transform="translate(0 41.258)" fill="#5d7ada"/></clipPath></defs><g clip-path="url(#a)"><g transform="translate(-0.001 0.001)"><path d="M32.341,7.674H23.846V-5.676a1.213,1.213,0,0,0-1.215-1.213h-3.64V-8.1a1.212,1.212,0,0,0-1.213-1.213H3.8A8.439,8.439,0,0,0-1.641-7.345,8.43,8.43,0,0,0-7.083-9.316H-21.058A1.212,1.212,0,0,0-22.27-8.1v1.215h-3.642a1.212,1.212,0,0,0-1.213,1.213V7.674H-35.62a3.646,3.646,0,0,0-3.642,3.64V47.722a3.646,3.646,0,0,0,3.642,3.64h24.272v4.855h-1.215a8.505,8.505,0,0,0-8.495,8.495,1.213,1.213,0,0,0,1.215,1.215H16.564a1.214,1.214,0,0,0,1.215-1.215,8.507,8.507,0,0,0-8.5-8.495H8.069V51.363H32.341a3.644,3.644,0,0,0,3.64-3.64V11.314a3.644,3.644,0,0,0-3.64-3.64M21.418-4.463V29.518H2V27.091H17.778a1.212,1.212,0,0,0,1.213-1.213V-4.463Zm-41.261,26.7H-7.083a6.023,6.023,0,0,1,4.289,1.778l.294.294a1.213,1.213,0,0,0,.859.356,1.217,1.217,0,0,0,.861-.356l.292-.294A6.027,6.027,0,0,1,3.8,22.236H16.564v2.427H-19.843Zm16.99,4.855H-.426v3.642a1.214,1.214,0,0,1-1.215,1.213,1.213,1.213,0,0,1-1.213-1.213ZM16.564-6.889v26.7H3.8A8.449,8.449,0,0,0-.426,20.934V9.4A6.026,6.026,0,0,1,3.8,7.674H14.136V5.246H3.8A8.449,8.449,0,0,0-.426,6.37V-5.163A6.032,6.032,0,0,1,3.8-6.889Zm-36.407,0H-7.083A6.028,6.028,0,0,1-2.853-5.163V6.37A8.444,8.444,0,0,0-7.083,5.246H-17.416V7.674H-7.083A6.022,6.022,0,0,1-2.853,9.4V20.934a8.444,8.444,0,0,0-4.229-1.123H-19.843ZM-24.7-4.463h2.427V25.878a1.212,1.212,0,0,0,1.213,1.213H-5.281v2.427H-24.7ZM15.227,63.5H-18.508a6.079,6.079,0,0,1,5.945-4.855H9.282A6.074,6.074,0,0,1,15.227,63.5M5.641,56.217H-8.921V51.363H5.641Zm27.912-8.495a1.213,1.213,0,0,1-1.213,1.213H-35.62a1.215,1.215,0,0,1-1.215-1.213V11.314A1.216,1.216,0,0,1-35.62,10.1h8.495V30.733a1.211,1.211,0,0,0,1.213,1.213H-5.056a3.633,3.633,0,0,0,3.416,2.427,3.633,3.633,0,0,0,3.418-2.427H22.631a1.211,1.211,0,0,0,1.215-1.213V10.1h8.495a1.215,1.215,0,0,1,1.213,1.213Z" transform="translate(39.262 9.316)" fill="#5d7ada"/></g><g transform="translate(21.846 4.854)"><path d="M.548,3.289H5.4A1.212,1.212,0,0,0,6.615,2.076V-2.778A1.214,1.214,0,0,0,5.4-3.993H.548A1.214,1.214,0,0,0-.665-2.778V2.076A1.212,1.212,0,0,0,.548,3.289M1.761-1.566H4.188V.862H1.761Z" transform="translate(0.665 3.993)" fill="#5d7ada"/></g><g transform="translate(46.117 19.418)"><path d="M2.74,0H-2.114A1.212,1.212,0,0,0-3.327,1.213V6.067A1.214,1.214,0,0,0-2.114,7.282H2.74A1.214,1.214,0,0,0,3.953,6.067V1.213A1.212,1.212,0,0,0,2.74,0M1.528,4.855H-.9V2.427H1.528Z" transform="translate(3.327)" fill="#5d7ada"/></g></g><path d="M11.978-30.611h9.709v2.427H11.978Z" transform="translate(9.866 50.028)" fill="#5d7ada"/><path d="M11.978-27.949h9.709v2.427H11.978Z" transform="translate(9.866 52.221)" fill="#5d7ada"/><path d="M23.956-35.934h9.709v2.427H23.956Z" transform="translate(19.733 45.643)" fill="#5d7ada"/><path d="M23.956-38.6h9.709v2.427H23.956Z" transform="translate(19.733 43.451)" fill="#5d7ada"/><g clip-path="url(#a)"><g transform="translate(12.135 43.689)"><path d="M20.281,0a6.079,6.079,0,0,0-5.945,4.855H-12.607A6.079,6.079,0,0,0-18.553,0a6.076,6.076,0,0,0-6.069,6.067,6.076,6.076,0,0,0,6.069,6.069,6.082,6.082,0,0,0,5.945-4.855H14.336A6.068,6.068,0,1,0,20.281,0M-18.553,9.709a3.646,3.646,0,0,1-3.642-3.642,3.646,3.646,0,0,1,3.642-3.64,3.646,3.646,0,0,1,3.64,3.64,3.646,3.646,0,0,1-3.64,3.642m38.834,0a3.641,3.641,0,1,1,3.64-3.642,3.645,3.645,0,0,1-3.64,3.642" transform="translate(24.622)" fill="#5d7ada"/></g></g></svg>