<svg xmlns="http://www.w3.org/2000/svg" width="293.334" height="446.683" viewBox="0 0 293.334 446.683">
  <g id="Grupo_128" data-name="Grupo 128" transform="translate(-107.68 -372.972)">
    <path id="Caminho_190" data-name="Caminho 190" d="M128.888,394.18a68.992,68.992,0,0,0,0,97.571L233.449,596.313l48.786-48.786a69,69,0,0,1,97.571,0L226.459,394.18A68.992,68.992,0,0,0,128.888,394.18Z" transform="translate(0 0)" fill="none" stroke="#fadcf3" stroke-miterlimit="10" stroke-width="2"/>
    <path id="Caminho_191" data-name="Caminho 191" d="M282.235,553.008l-48.786-48.787L128.888,608.784a68.993,68.993,0,0,0,97.571,97.571L379.806,553.008A69,69,0,0,1,282.235,553.008Z" transform="translate(0 92.091)" fill="none" stroke="#fadcf3" stroke-miterlimit="10" stroke-width="2"/>
    <path id="Caminho_192" data-name="Caminho 192" d="M230.557,484.011,181.771,532.8l48.786,48.787a68.994,68.994,0,1,0,0-97.573Z" transform="translate(51.678 63.515)" fill="none" stroke="#fadcf3" stroke-miterlimit="10" stroke-width="2"/>
  </g>
</svg>
